<svg xmlns="http://www.w3.org/2000/svg" width="97" height="41" viewBox="0 0 97 41" fill="none"><g id="logo"><g id="Vector"><path fill-rule="evenodd" clip-rule="evenodd" d="M14.7378 28.6102C19.4322 28.6102 23.2378 24.8046 23.2378 20.1102C23.2378 15.4158 19.4322 11.6102 14.7378 11.6102C10.0434 11.6102 6.23779 15.4158 6.23779 20.1102C6.23779 24.8046 10.0434 28.6102 14.7378 28.6102ZM14.7378 31.6102C21.0891 31.6102 26.2378 26.4615 26.2378 20.1102C26.2378 13.759 21.0891 8.61023 14.7378 8.61023C8.38652 8.61023 3.23779 13.759 3.23779 20.1102C3.23779 26.4615 8.38652 31.6102 14.7378 31.6102Z" fill="#EF3B24"></path><path fill-rule="evenodd" clip-rule="evenodd" d="M27.4429 24.2083V9.45293C27.4429 9.34247 27.5324 9.25293 27.6429 9.25293H30.2429C30.3533 9.25293 30.4429 9.34247 30.4429 9.45293V24.2083C30.4429 26.587 32.3712 28.5153 34.7499 28.5153C37.1285 28.5153 39.0568 26.587 39.0568 24.2083V9.45293C39.0568 9.34247 39.1464 9.25293 39.2568 9.25293H41.8568C41.9673 9.25293 42.0568 9.34247 42.0568 9.45293V24.2083C42.0568 28.2438 38.7854 31.5153 34.7499 31.5153C30.7143 31.5153 27.4429 28.2439 27.4429 24.2083Z" fill="#EF3B24"></path><path fill-rule="evenodd" clip-rule="evenodd" d="M58.8372 22.5629C58.9285 22.6251 58.9523 22.7497 58.8876 22.8392C57.5628 24.6739 55.4017 25.8725 52.9602 25.8725C50.5187 25.8725 48.3576 24.6739 47.0328 22.8392C46.9682 22.7497 46.992 22.6251 47.0833 22.5629L49.232 21.0991C49.3233 21.0369 49.4474 21.0608 49.5137 21.1491C50.3016 22.1983 51.5524 22.8725 52.9602 22.8725C54.3681 22.8725 55.6188 22.1983 56.4067 21.1491C56.4731 21.0608 56.5971 21.0369 56.6884 21.0991L58.8372 22.5629Z" fill="#EF3B24"></path><path fill-rule="evenodd" clip-rule="evenodd" d="M65.3938 31.1102C65.2834 31.1102 65.1938 31.0207 65.1938 30.9102V9.41591C65.1938 9.30545 65.2834 9.21591 65.3938 9.21591L73.2441 9.21591C76.5602 9.21591 79.2485 11.9042 79.2485 15.2204C79.2485 18.5365 76.5602 21.2248 73.2441 21.2248H68.3938C68.2834 21.2248 68.1938 21.3144 68.1938 21.4248V30.9102C68.1938 31.0207 68.1043 31.1102 67.9939 31.1102H65.3938ZM68.1938 18.0248C68.1938 18.1353 68.2834 18.2248 68.3938 18.2248H73.2441C74.9034 18.2248 76.2485 16.8797 76.2485 15.2204C76.2485 13.561 74.9034 12.2159 73.2441 12.2159H68.3938C68.2834 12.2159 68.1938 12.3055 68.1938 12.4159V18.0248Z" fill="#EF3B24"></path><path fill-rule="evenodd" clip-rule="evenodd" d="M80.9378 31.1102C80.8273 31.1102 80.7378 31.0207 80.7378 30.9102V9.4159C80.7378 9.30544 80.8273 9.2159 80.9378 9.2159L93.1169 9.2159C93.2273 9.2159 93.3169 9.30544 93.3169 9.4159V12.0159C93.3169 12.1264 93.2273 12.2159 93.1169 12.2159L83.9378 12.2159C83.8273 12.2159 83.7378 12.3054 83.7378 12.4159V17.6296C83.7378 17.7401 83.8273 17.8296 83.9378 17.8296H93.1169C93.2273 17.8296 93.3169 17.9192 93.3169 18.0296V20.6296C93.3169 20.7401 93.2273 20.8296 93.1169 20.8296H83.9378C83.8273 20.8296 83.7378 20.9192 83.7378 21.0296V27.9102C83.7378 28.0207 83.8273 28.1102 83.9378 28.1102H93.1169C93.2273 28.1102 93.3169 28.1998 93.3169 28.3102V30.9102C93.3169 31.0207 93.2273 31.1102 93.1169 31.1102H80.9378Z" fill="#EF3B24"></path><path d="M3.71526 32.6614C3.5495 32.6614 3.45569 32.4714 3.5565 32.3398L12.4715 20.7047C12.5093 20.6553 12.568 20.6263 12.6302 20.6263H15.9057C16.0715 20.6263 16.1653 20.8164 16.0645 20.948L7.14948 32.5831C7.11164 32.6325 7.05296 32.6614 6.99073 32.6614H3.71526Z" fill="#EF3B24"></path><path d="M53.6849 9.61777C53.3975 9.00257 52.5227 9.00257 52.2353 9.61777L42.3278 30.8256C42.2659 30.9582 42.3626 31.1102 42.509 31.1102H45.3787C45.4564 31.1102 45.5271 31.0652 45.5599 30.9949L52.7789 15.5421C52.8508 15.3883 53.0695 15.3883 53.1413 15.5421L60.3603 30.9949C60.3932 31.0652 60.4638 31.1102 60.5415 31.1102H63.4112C63.5576 31.1102 63.6544 30.9582 63.5924 30.8256L53.6849 9.61777Z" fill="#EF3B24"></path></g></g></svg>